<svg viewBox="0 0 240 260" xmlns="http://www.w3.org/2000/svg" role="img" aria-label="Final Dance crest">
  <defs>
    <linearGradient id="c-shield" x1="0" y1="0" x2="0" y2="1">
      <stop offset="0" stop-color="#17365A"/><stop offset="1" stop-color="#0A1729"/>
    </linearGradient>
    <linearGradient id="c-gold" x1="0" y1="0" x2="0" y2="1">
      <stop offset="0" stop-color="#FFE187"/><stop offset="0.5" stop-color="#F5B301"/><stop offset="1" stop-color="#C98A00"/>
    </linearGradient>
    <clipPath id="c-ball-clip"><ellipse cx="120" cy="160" rx="62" ry="35"/></clipPath>
    <symbol id="c-star" viewBox="-10 -10 20 20">
      <path d="M0 -9 L2.6 -2.8 L9 -2.8 L3.8 1.4 L5.6 8 L0 4 L-5.6 8 L-3.8 1.4 L-9 -2.8 L-2.6 -2.8 Z"/>
    </symbol>
  </defs>
  <path d="M42 24 L198 24 Q210 24 210 40 L210 150 Q210 212 120 246 Q30 212 30 150 L30 40 Q30 24 42 24 Z"
        fill="url(#c-shield)" stroke="#F5B301" stroke-width="7"/>
  <path d="M49 34 L191 34 Q200 34 200 44 L200 150 Q200 204 120 233 Q40 204 40 150 L40 44 Q40 34 49 34 Z"
        fill="none" stroke="rgba(245,179,1,0.30)" stroke-width="2"/>
  <use href="#c-star" x="105" y="47" width="30" height="30" fill="url(#c-gold)"/>
  <use href="#c-star" x="72" y="60" width="22" height="22" fill="url(#c-gold)"/>
  <use href="#c-star" x="146" y="60" width="22" height="22" fill="url(#c-gold)"/>
  <g transform="rotate(-18 120 160)">
    <ellipse cx="120" cy="160" rx="62" ry="35" fill="url(#c-gold)" stroke="#8A5A00" stroke-width="3"/>
    <g clip-path="url(#c-ball-clip)" fill="#0A1729">
      <rect x="66" y="120" width="7" height="80" rx="3"/><rect x="167" y="120" width="7" height="80" rx="3"/>
    </g>
    <g stroke="#0A1729" stroke-width="4" stroke-linecap="round">
      <line x1="97" y1="160" x2="143" y2="160"/>
      <line x1="102" y1="152" x2="102" y2="168"/><line x1="112" y1="151" x2="112" y2="169"/>
      <line x1="122" y1="151" x2="122" y2="169"/><line x1="132" y1="152" x2="132" y2="168"/>
    </g>
  </g>
</svg>
